<svg xmlns="http://www.w3.org/2000/svg" viewBox="0 0 800 450" preserveAspectRatio="xMidYMid slice">
  <defs>
    <linearGradient id="pr-sky" x1="0" y1="0" x2="0" y2="1">
      <stop offset="0" stop-color="#F8E4C4"/>
      <stop offset="0.55" stop-color="#E8B891"/>
      <stop offset="1" stop-color="#B77A5F"/>
    </linearGradient>
    <linearGradient id="pr-front" x1="0" y1="0" x2="0" y2="1">
      <stop offset="0" stop-color="#3A2A24"/>
      <stop offset="1" stop-color="#1C110C"/>
    </linearGradient>
  </defs>
  <rect width="800" height="450" fill="url(#pr-sky)"/>

  <!-- sun -->
  <circle cx="560" cy="170" r="60" fill="#FFE7B8" opacity="0.9"/>
  <circle cx="560" cy="170" r="90" fill="#FFE7B8" opacity="0.25"/>

  <!-- distant skyline -->
  <g fill="#8A5742" opacity="0.55">
    <rect x="30"  y="260" width="40"  height="110"/>
    <rect x="80"  y="240" width="30"  height="130"/>
    <rect x="118" y="220" width="50"  height="150"/>
    <rect x="176" y="250" width="36"  height="120"/>
    <rect x="220" y="210" width="44"  height="160"/>
    <rect x="272" y="232" width="30"  height="138"/>
    <rect x="310" y="250" width="48"  height="120"/>
    <rect x="366" y="222" width="40"  height="148"/>
    <rect x="414" y="244" width="34"  height="126"/>
    <rect x="456" y="210" width="56"  height="160"/>
    <rect x="520" y="240" width="32"  height="130"/>
    <rect x="558" y="260" width="38"  height="110"/>
    <rect x="604" y="232" width="42"  height="138"/>
    <rect x="652" y="248" width="32"  height="122"/>
    <rect x="690" y="218" width="48"  height="152"/>
    <rect x="744" y="244" width="38"  height="126"/>
  </g>

  <!-- mid-layer skyline -->
  <g fill="#5D3A2B" opacity="0.85">
    <rect x="0"   y="290" width="70"  height="120"/>
    <rect x="72"  y="270" width="56"  height="140"/>
    <rect x="130" y="250" width="40"  height="160"/>
    <rect x="172" y="280" width="70"  height="130"/>
    <rect x="244" y="240" width="50"  height="170"/>
    <rect x="296" y="270" width="60"  height="140"/>
    <rect x="358" y="230" width="46"  height="180"/>
    <rect x="406" y="260" width="70"  height="150"/>
    <rect x="478" y="240" width="52"  height="170"/>
    <rect x="532" y="270" width="68"  height="140"/>
    <rect x="602" y="220" width="60"  height="190"/>
    <rect x="664" y="260" width="52"  height="150"/>
    <rect x="718" y="240" width="82"  height="170"/>
  </g>

  <!-- foreground highlight buildings (HDB/condo feel) -->
  <g fill="url(#pr-front)">
    <rect x="100" y="220" width="90"  height="230"/>
    <rect x="240" y="180" width="110" height="270"/>
    <rect x="400" y="200" width="70"  height="250"/>
    <rect x="520" y="170" width="110" height="280"/>
    <rect x="680" y="230" width="80"  height="220"/>
  </g>

  <!-- window grids on foreground buildings -->
  <g fill="#F6C585" opacity="0.78">
    <!-- building 1 -->
    <g transform="translate(110,230)">
      <g>
        <rect x="0"  y="0"  width="10" height="14"/>
        <rect x="18" y="0"  width="10" height="14"/>
        <rect x="36" y="0"  width="10" height="14"/>
        <rect x="54" y="0"  width="10" height="14"/>
        <rect x="72" y="0"  width="10" height="14"/>
      </g>
      <g transform="translate(0,24)">
        <rect x="0"  y="0" width="10" height="14"/>
        <rect x="18" y="0" width="10" height="14"/>
        <rect x="36" y="0" width="10" height="14"/>
        <rect x="54" y="0" width="10" height="14"/>
        <rect x="72" y="0" width="10" height="14"/>
      </g>
      <g transform="translate(0,48)">
        <rect x="0"  y="0" width="10" height="14"/>
        <rect x="18" y="0" width="10" height="14"/>
        <rect x="36" y="0" width="10" height="14"/>
        <rect x="54" y="0" width="10" height="14"/>
        <rect x="72" y="0" width="10" height="14"/>
      </g>
      <g transform="translate(0,72)">
        <rect x="0"  y="0" width="10" height="14"/>
        <rect x="36" y="0" width="10" height="14"/>
        <rect x="54" y="0" width="10" height="14"/>
        <rect x="72" y="0" width="10" height="14"/>
      </g>
      <g transform="translate(0,96)">
        <rect x="0"  y="0" width="10" height="14"/>
        <rect x="18" y="0" width="10" height="14"/>
        <rect x="36" y="0" width="10" height="14"/>
        <rect x="72" y="0" width="10" height="14"/>
      </g>
    </g>
    <!-- building 2 (condo) -->
    <g transform="translate(250,200)">
      <g>
        <rect x="0"  y="0" width="12" height="16"/>
        <rect x="20" y="0" width="12" height="16"/>
        <rect x="40" y="0" width="12" height="16"/>
        <rect x="60" y="0" width="12" height="16"/>
        <rect x="80" y="0" width="12" height="16"/>
      </g>
      <g transform="translate(0,28)">
        <rect x="0"  y="0" width="12" height="16"/>
        <rect x="20" y="0" width="12" height="16"/>
        <rect x="60" y="0" width="12" height="16"/>
        <rect x="80" y="0" width="12" height="16"/>
      </g>
      <g transform="translate(0,56)">
        <rect x="0"  y="0" width="12" height="16"/>
        <rect x="40" y="0" width="12" height="16"/>
        <rect x="60" y="0" width="12" height="16"/>
        <rect x="80" y="0" width="12" height="16"/>
      </g>
      <g transform="translate(0,84)">
        <rect x="0"  y="0" width="12" height="16"/>
        <rect x="20" y="0" width="12" height="16"/>
        <rect x="40" y="0" width="12" height="16"/>
        <rect x="80" y="0" width="12" height="16"/>
      </g>
      <g transform="translate(0,112)">
        <rect x="20" y="0" width="12" height="16"/>
        <rect x="40" y="0" width="12" height="16"/>
        <rect x="60" y="0" width="12" height="16"/>
        <rect x="80" y="0" width="12" height="16"/>
      </g>
    </g>
    <!-- building 4 -->
    <g transform="translate(530,190)">
      <g>
        <rect x="0"  y="0" width="10" height="14"/>
        <rect x="18" y="0" width="10" height="14"/>
        <rect x="36" y="0" width="10" height="14"/>
        <rect x="54" y="0" width="10" height="14"/>
        <rect x="72" y="0" width="10" height="14"/>
        <rect x="90" y="0" width="10" height="14"/>
      </g>
      <g transform="translate(0,26)">
        <rect x="0"  y="0" width="10" height="14"/>
        <rect x="36" y="0" width="10" height="14"/>
        <rect x="54" y="0" width="10" height="14"/>
        <rect x="72" y="0" width="10" height="14"/>
        <rect x="90" y="0" width="10" height="14"/>
      </g>
      <g transform="translate(0,52)">
        <rect x="0"  y="0" width="10" height="14"/>
        <rect x="18" y="0" width="10" height="14"/>
        <rect x="36" y="0" width="10" height="14"/>
        <rect x="54" y="0" width="10" height="14"/>
        <rect x="90" y="0" width="10" height="14"/>
      </g>
      <g transform="translate(0,78)">
        <rect x="18" y="0" width="10" height="14"/>
        <rect x="36" y="0" width="10" height="14"/>
        <rect x="54" y="0" width="10" height="14"/>
        <rect x="72" y="0" width="10" height="14"/>
      </g>
      <g transform="translate(0,104)">
        <rect x="0"  y="0" width="10" height="14"/>
        <rect x="36" y="0" width="10" height="14"/>
        <rect x="72" y="0" width="10" height="14"/>
        <rect x="90" y="0" width="10" height="14"/>
      </g>
    </g>
  </g>

  <!-- price tag -->
  <g transform="translate(60,60) rotate(-6)">
    <rect x="0" y="0" width="190" height="56" fill="#FFFDF5" stroke="#3A2A24" stroke-width="2"/>
    <text x="14" y="22" font-family="Georgia, serif" font-size="11" fill="#6A4A3A" font-weight="700" letter-spacing="1.4">MEDIAN PSF · D9</text>
    <text x="14" y="46" font-family="Georgia, serif" font-size="20" fill="#3A2A24" font-weight="700">S$ 2,840</text>
  </g>
</svg>
